# xmcd
#
# Track frame offsets:
#	150
#	24737
#	41205
#	67297
#	75037
#	105810
#	137657
#	168307
#	174040
#	204940
#	219580
#
# Disc length: 3282 seconds
#
# Revision: 1
# Processed by: cddbd v1.5.1PL0 Copyright (c) Steve Scherf et al.
# Submitted via: CDex 1.50Beta5
#
DISCID=870cd00b
DTITLE=田中健 - ひととせ 春夏秋冬
DYEAR=1998
DGENRE=New Age
TTITLE0=春花の兆し
TTITLE1=夏のある日
TTITLE2=コンドルは飛んで行く
TTITLE3=インディアン・フルート
TTITLE4=雨の降る日に
TTITLE5=そよ風の中で
TTITLE6=月明かりに抱かれて
TTITLE7=浜辺の歌
TTITLE8=季節の全景
TTITLE9=遠い星
TTITLE10=秋冬の陽
EXTD=
EXTT0=
EXTT1=
EXTT2=
EXTT3=
EXTT4=
EXTT5=
EXTT6=
EXTT7=
EXTT8=
EXTT9=
EXTT10=
PLAYORDER=
